<!-- Generated by IcoMoon.io -->
<svg version="1.1" xmlns="http://www.w3.org/2000/svg" width="32" height="32" viewBox="0 0 32 32">
<title>Insta</title>
<path d="M15.139 0c4.111 0 4.627 0.018 6.242 0.095 1.611 0.076 2.712 0.342 3.675 0.731 0.996 0.402 1.84 0.94 2.681 1.815s1.359 1.752 1.746 2.787c0.374 1.001 0.63 2.145 0.703 3.82 0.074 1.678 0.091 2.214 0.091 6.488s-0.017 4.809-0.091 6.488c-0.073 1.675-0.329 2.819-0.703 3.82-0.387 1.035-0.905 1.912-1.746 2.787s-1.686 1.413-2.681 1.815c-0.963 0.389-2.063 0.655-3.675 0.731-1.615 0.077-2.13 0.095-6.242 0.095s-4.627-0.018-6.242-0.095c-1.612-0.076-2.712-0.342-3.675-0.731-0.996-0.402-1.84-0.94-2.682-1.815s-1.359-1.752-1.746-2.787c-0.374-1.001-0.63-2.145-0.704-3.82-0.074-1.678-0.091-2.215-0.091-6.488s0.018-4.809 0.091-6.488c0.074-1.675 0.329-2.819 0.704-3.82 0.387-1.035 0.905-1.912 1.746-2.787s1.686-1.413 2.682-1.815c0.963-0.389 2.063-0.655 3.675-0.731 1.615-0.077 2.13-0.095 6.242-0.095zM15.139 2.835c-4.042 0-4.521 0.016-6.117 0.092-1.476 0.070-2.277 0.326-2.811 0.542-0.707 0.285-1.211 0.626-1.741 1.177s-0.858 1.075-1.132 1.809c-0.207 0.555-0.454 1.388-0.521 2.922-0.073 1.659-0.088 2.157-0.088 6.359s0.016 4.699 0.088 6.359c0.067 1.534 0.314 2.367 0.521 2.922 0.275 0.735 0.603 1.259 1.132 1.809s1.034 0.892 1.741 1.177c0.534 0.216 1.335 0.472 2.811 0.542 1.596 0.076 2.075 0.092 6.117 0.092s4.521-0.016 6.117-0.092c1.476-0.070 2.277-0.326 2.811-0.542 0.707-0.285 1.211-0.627 1.741-1.177s0.858-1.075 1.132-1.809c0.207-0.554 0.454-1.388 0.521-2.922 0.073-1.659 0.088-2.157 0.088-6.359s-0.015-4.699-0.088-6.359c-0.067-1.534-0.314-2.367-0.521-2.922-0.275-0.734-0.603-1.259-1.132-1.809s-1.034-0.892-1.741-1.177c-0.533-0.216-1.335-0.472-2.811-0.542-1.596-0.076-2.075-0.092-6.117-0.092z"></path>
<path d="M15.258 21.681c3.039 0 5.502-2.573 5.502-5.747s-2.463-5.746-5.502-5.746-5.502 2.573-5.502 5.746c0 3.174 2.463 5.747 5.502 5.747zM15.258 7.082c4.681 0 8.476 3.963 8.476 8.852s-3.795 8.853-8.476 8.853c-4.682 0-8.477-3.963-8.477-8.853s3.795-8.852 8.477-8.852z"></path>
<path d="M5.097 7.262c0 1.077 0.89 1.95 1.988 1.95s1.988-0.873 1.988-1.95-0.89-1.95-1.988-1.95c-1.098 0-1.988 0.873-1.988 1.95z"></path>
</svg>
