<!-- Generated by IcoMoon.io -->
<svg version="1.1" xmlns="http://www.w3.org/2000/svg" width="61" height="32" viewBox="0 0 61 32">
<title>Vk</title>
<path d="M29.832 31.662h3.644c0 0 1.1-0.111 1.664-0.664 0.517-0.509 0.5-1.463 0.5-1.463s-0.071-4.469 2.198-5.128c2.238-0.648 5.111 4.32 8.155 6.231 2.303 1.446 4.053 1.129 4.053 1.129l8.143-0.104c0 0 4.259-0.24 2.239-3.301-0.165-0.251-1.176-2.264-6.054-6.404-5.106-4.331-4.422-3.631 1.728-11.124 3.745-4.563 5.243-7.349 4.775-8.541-0.446-1.137-3.201-0.837-3.201-0.837l-9.168 0.052c0 0-0.68-0.085-1.184 0.191-0.493 0.27-0.809 0.899-0.809 0.899s-1.452 3.531-3.386 6.534c-4.083 6.336-5.715 6.672-6.382 6.278-1.553-0.917-1.164-3.683-1.164-5.649 0-6.142 1.019-8.702-1.985-9.364-0.996-0.22-1.73-0.365-4.28-0.389-3.271-0.030-6.039 0.009-7.607 0.712-1.043 0.467-1.848 1.507-1.358 1.567 0.606 0.073 1.978 0.338 2.706 1.243 0.94 1.168 0.907 3.793 0.907 3.793s0.54 7.228-1.261 8.126c-1.236 0.615-2.931-0.642-6.571-6.391-1.864-2.945-3.273-6.199-3.273-6.199s-0.271-0.609-0.756-0.934c-0.587-0.395-1.408-0.52-1.408-0.52l-8.712 0.052c0 0-1.308 0.033-1.788 0.554-0.427 0.462-0.034 1.418-0.034 1.418s6.82 14.587 14.543 21.937c7.083 6.74 15.123 6.298 15.123 6.298z"></path>
</svg>
